#tb 0: 1/4
0,          0,          0,        1,   135000, 0x9dceed6d
0,          1,          1,        1,   135000, 0xcb87787f
0,          2,          2,        1,   135000, 0xdb4361ce
0,          3,          3,        1,   135000, 0xb8fd81c2
0,          4,          4,        1,   135000, 0xbf86a7af
0,          5,          5,        1,   135000, 0x2e7787e3
0,          6,          6,        1,   135000, 0x6cec6ebd
0,          7,          7,        1,   135000, 0xa4d08c07
0,          8,          8,        1,   135000, 0x1be48faf
0,          9,          9,        1,   135000, 0xf3cd8ede
0,         10,         10,        1,   135000, 0x33ec8a49
0,         11,         11,        1,   135000, 0x11e887ec
0,         12,         12,        1,   135000, 0x3e215c25
0,         13,         13,        1,   135000, 0x1a2cb3f8
0,         14,         14,        1,   135000, 0x7fb0e48a
0,         15,         15,        1,   135000, 0x749f3738
0,         16,         16,        1,   135000, 0x686e78e9
0,         17,         17,        1,   135000, 0x29515bc7
0,         18,         18,        1,   135000, 0x987126bd
0,         19,         19,        1,   135000, 0xdf77bb13
0,         20,         20,        1,   135000, 0x5fb1468a
0,         21,         21,        1,   135000, 0x06ea50ea
0,         22,         22,        1,   135000, 0x7bd9c715
0,         23,         23,        1,   135000, 0xdd6e6831
0,         24,         24,        1,   135000, 0x0ee3760f
0,         25,         25,        1,   135000, 0xc7984dc8
0,         26,         26,        1,   135000, 0x7e385bff
0,         27,         27,        1,   135000, 0xae155ab9
0,         28,         28,        1,   135000, 0xc05ee8f7
0,         29,         29,        1,   135000, 0x93de3392
0,         30,         30,        1,   135000, 0xfe45b38b
0,         31,         31,        1,   135000, 0xeb5ed72c
0,         32,         32,        1,   135000, 0x0794cb57
0,         33,         33,        1,   135000, 0x2578c6e5
0,         34,         34,        1,   135000, 0x78486707
0,         35,         35,        1,   135000, 0x41e1f0e6
0,         36,         36,        1,   135000, 0x4508eb76
0,         37,         37,        1,   135000, 0xd8c087f3
0,         38,         38,        1,   135000, 0x1a8db89a
0,         39,         39,        1,   135000, 0x6dbd90c6
0,         40,         40,        1,   135000, 0x0845e400
0,         41,         41,        1,   135000, 0xe8b02fc2
0,         42,         42,        1,   135000, 0x8007d813
0,         43,         43,        1,   135000, 0xdfb04e69
0,         44,         44,        1,   135000, 0x5746cf71
0,         45,         45,        1,   135000, 0xe510299f
0,         46,         46,        1,   135000, 0xeea0c829
0,         47,         47,        1,   135000, 0x7c0578ab
0,         48,         48,        1,   135000, 0xb1569ce9
0,         49,         49,        1,   135000, 0x6c233986
0,         50,         50,        1,   135000, 0x95b77f3d
0,         51,         51,        1,   135000, 0xfc368d80
0,         52,         52,        1,   135000, 0x5c73b064
0,         53,         53,        1,   135000, 0x2206da8d
0,         54,         54,        1,   135000, 0x62bb599e
0,         55,         55,        1,   135000, 0x15a68991
0,         56,         56,        1,   135000, 0x5f5eb810
0,         57,         57,        1,   135000, 0x85a9634a
0,         58,         58,        1,   135000, 0xf24b5c1a
0,         59,         59,        1,   135000, 0x38034850
0,         60,         60,        1,   135000, 0x48fd3599
0,         61,         61,        1,   135000, 0xb9d62408
0,         62,         62,        1,   135000, 0xaf202a21
0,         63,         63,        1,   135000, 0x341aa582
0,         64,         64,        1,   135000, 0x90cdc9bb
0,         65,         65,        1,   135000, 0x0b52f319
0,         66,         66,        1,   135000, 0xce61aa5e
0,         67,         67,        1,   135000, 0x988acb45
0,         68,         68,        1,   135000, 0xcd353664
0,         69,         69,        1,   135000, 0xa80c8ce9
0,         70,         70,        1,   135000, 0x15dce784
0,         71,         71,        1,   135000, 0x16bd4519
0,         72,         72,        1,   135000, 0x571712f3
0,         73,         73,        1,   135000, 0x6b109f1e
0,         74,         74,        1,   135000, 0x8e4c19aa
0,         75,         75,        1,   135000, 0x4132bd4c
0,         76,         76,        1,   135000, 0x5babafe2
0,         77,         77,        1,   135000, 0xddef6313
0,         78,         78,        1,   135000, 0x76d6b48b
0,         79,         79,        1,   135000, 0x929e7702
0,         80,         80,        1,   135000, 0x33f5e4a1
0,         81,         81,        1,   135000, 0xdb7041bf
0,         82,         82,        1,   135000, 0xbc761e04
0,         83,         83,        1,   135000, 0x0b2a81e6
0,         84,         84,        1,   135000, 0xf6fd20ea
0,         85,         85,        1,   135000, 0x1894a26c
0,         86,         86,        1,   135000, 0xb25e216f
0,         87,         87,        1,   135000, 0x83bb02ee
0,         88,         88,        1,   135000, 0x6952a3c3
0,         89,         89,        1,   135000, 0x372184d6
0,         90,         90,        1,   135000, 0x2ac47afe
0,         91,         91,        1,   135000, 0x14c33a35
0,         92,         92,        1,   135000, 0xdc08470e
